<svg xmlns="http://www.w3.org/2000/svg" viewBox="0 0 1278.3 394.48"><defs><style>.cls-1,.cls-2{fill:#fff;}.cls-2{font-size:110.54px;stroke:#fff;}.cls-2,.cls-6{stroke-miterlimit:10;stroke-width:2px;font-family:CocogoosePro-Thin, Cocogoose Pro;font-weight:200;}.cls-3{letter-spacing:-0.05em;}.cls-4{letter-spacing:0em;}.cls-5{letter-spacing:-0.04em;}.cls-6{font-size:58.72px;fill:#56bbf1;stroke:#56bbf1;}.cls-7{letter-spacing:-0.11em;}</style></defs><title>dental-logo-white-contrast</title><g id="Layer_4" data-name="Layer 4"><path class="cls-1" d="M1112,394.56a518.28,518.28,0,0,1-167.5-53.34,533.19,533.19,0,0,1-140.77-105.5A508.19,508.19,0,0,1,742.36,157c-3.08-4.88-10.87-.37-7.77,4.54A525.36,525.36,0,0,0,854.7,294.06a543.32,543.32,0,0,0,156.73,85.64,513.28,513.28,0,0,0,98.22,23.54c5.66.78,8.11-7.89,2.39-8.68Z" transform="translate(-733.87 -107.35)"/><path class="cls-1" d="M829.94,306.64c2.44,27.26,5.9,54.53,12.15,81.21,5.74,24.48,14.64,48,23.3,71.53,3.64,9.89,7.67,19.94,14.36,28.22,6,7.44,16.09,16.33,26.46,13.78,9.26-2.28,13.65-10.45,14.58-19.32s.16-18.07.63-27c1.22-23.34,6.34-48,26.08-62.83,4.57-3.44.09-11.25-4.54-7.77-15.39,11.57-24.12,28.08-27.8,46.78a181.43,181.43,0,0,0-2.93,28.1c-.3,8.09,1,17.08-.85,25-.9,3.95-3.26,7.63-7.57,8.39-5.71,1-11.38-4.68-15-8.38-6.91-7.07-10.84-16.82-14.24-25.94-8.06-21.62-16.25-43.3-22-65.67-7.27-28.18-11-57.13-13.62-86.07-.51-5.73-9.51-5.78-9,0Z" transform="translate(-733.87 -107.35)"/><path class="cls-1" d="M1047.58,410.18c-6.38,19-9.11,39.92-17.84,58.07-3.61,7.51-8.23,16.48-15.39,21.16-7.5,4.9-17.44,4.46-21.42-4.45-3.23-7.23-2.76-15.84-3.79-23.55a122.32,122.32,0,0,0-5.77-24.16,133.27,133.27,0,0,0-24.47-42.37,126.58,126.58,0,0,0-45.16-33.67c-5.25-2.3-9.84,5.45-4.54,7.78a122,122,0,0,1,68.48,80.45c2.33,9,2.85,18.09,4.07,27.28,1,7.79,3.3,15.75,9.78,20.75,6.83,5.27,15.89,5.09,23.52,1.74,8.27-3.63,13.8-11.12,18.31-18.67,12.34-20.66,15.34-45.42,22.9-68,1.84-5.5-6.85-7.86-8.68-2.39Z" transform="translate(-733.87 -107.35)"/><path class="cls-1" d="M1063.27,366.3a370.38,370.38,0,0,0,11.47-51.84c2.5-16.67,5.08-33.57,5.39-50.46.29-16.1-1.94-32.59-9.72-46.92a66.88,66.88,0,0,0-81.8-30.69c-6.39,2.34-12.67,5-19.06,7.3-6,2.19-12.45,4.9-18.92,5.06-12,.3-23.06-6.82-33.87-11.12-12.75-5.07-25.17-6.08-38.65-3.85-11.46,1.89-22.79,5.93-31.32,14.07C836.43,207.75,832,222,830.1,235.79c-.79,5.67,7.89,8.12,8.68,2.4,1.59-11.4,4.57-23.45,12.59-32.15,6.43-7,15.13-10.64,24.25-12.65,12.23-2.7,23.89-2.53,35.73,1.77,10.43,3.78,20.21,9.91,31.24,11.89,12.1,2.16,23.2-2.31,34.35-6.55,14.27-5.43,27.66-10.95,43.32-8.63a58.42,58.42,0,0,1,37.17,21.72c9.54,12.18,13.12,27.69,13.64,42.88.61,17.73-2.08,35.55-4.63,53a376.78,376.78,0,0,1-11.85,54.38c-1.68,5.56,7,7.94,8.68,2.4Z" transform="translate(-733.87 -107.35)"/></g><g id="Layer_6" data-name="Layer 6"><path class="cls-1" d="M835.31,153.39a71.71,71.71,0,0,1-38.21,43.7c-5.24,2.47-.68,10.23,4.54,7.78A80.54,80.54,0,0,0,844,155.78c1.71-5.54-7-7.92-8.68-2.39Z" transform="translate(-733.87 -107.35)"/><path class="cls-1" d="M817.5,132.59a71.71,71.71,0,0,1-38.21,43.7c-5.24,2.47-.67,10.23,4.54,7.78A80.46,80.46,0,0,0,826.18,135c1.71-5.54-7-7.92-8.68-2.39Z" transform="translate(-733.87 -107.35)"/><path class="cls-1" d="M798.46,110.5a71.71,71.71,0,0,1-38.21,43.7c-5.24,2.46-.68,10.22,4.54,7.77a80.53,80.53,0,0,0,42.35-49.08c1.71-5.55-7-7.92-8.68-2.39Z" transform="translate(-733.87 -107.35)"/><text class="cls-2" transform="translate(424.75 327.1)">N<tspan class="cls-3" x="85.96" y="0">E</tspan><tspan class="cls-4" x="150.61" y="0">O SONRIS</tspan><tspan class="cls-5" x="704.99" y="0">A</tspan><tspan x="780.24" y="0">S</tspan></text><text class="cls-6" transform="translate(424.75 195.28)">CLINICA DEN<tspan class="cls-7" x="380.27" y="0">T</tspan><tspan x="410.6" y="0">AL</tspan></text></g></svg>